<svg viewBox="0 0 24 24" fill="none" stroke="currentColor" stroke-width="1.55" stroke-linecap="round" stroke-linejoin="round" ><rect x="3" y="4" width="2" height="2" rx=".35"/><rect x="6" y="4" width="2" height="2" rx=".35"/><rect x="9" y="4" width="2" height="2" rx=".35"/><rect x="12" y="4" width="2" height="2" rx=".35"/><rect x="3" y="7" width="2" height="2" rx=".35"/><rect x="6" y="7" width="2" height="2" rx=".35"/><rect x="9" y="7" width="2" height="2" rx=".35"/><rect x="12" y="7" width="2" height="2" rx=".35"/><rect x="3" y="10" width="2" height="2" rx=".35"/><rect x="6" y="10" width="2" height="2" rx=".35"/><rect x="9" y="10" width="2" height="2" rx=".35"/><rect x="12" y="10" width="2" height="2" rx=".35"/><rect x="3" y="13" width="2" height="2" rx=".35"/><rect x="6" y="13" width="2" height="2" rx=".35"/><rect x="9" y="13" width="2" height="2" rx=".35"/><rect x="12" y="13" width="2" height="2" rx=".35"/><path d="M15 5h6M15 12h5M15 19h4"/><path d="M12 12h2"/></svg>
