<svg
  xmlns="http://www.w3.org/2000/svg"
 
 
  viewBox="-1 -1 26 26"
  fill="none"
  stroke="#111827"
  stroke-width="2"
  stroke-linecap="round"
  stroke-linejoin="round"
 
 data-icon-id="evaluation.qualitative.tabler_outline.v1" data-source="@tabler/icons">
  <path stroke="none" d="M0 0h24v24H0z" fill="none" />
  <path d="M15 8h.01" />
  <path d="M11.5 21h-5.5a3 3 0 0 1 -3 -3v-12a3 3 0 0 1 3 -3h12a3 3 0 0 1 3 3v5.5" />
  <path d="M15 18a3 3 0 1 0 6 0a3 3 0 1 0 -6 0" />
  <path d="M20.2 20.2l1.8 1.8" />
  <path d="M3 16l5 -5c.928 -.893 2.072 -.893 3 0l2 2" />
</svg>
