<svg xmlns="http://www.w3.org/2000/svg" viewBox="0 0 240 160" fill="none" stroke="#111827" stroke-width="3" stroke-linecap="round" stroke-linejoin="round"><rect x="22" y="68" width="16" height="24" rx="4" fill="#F8FAFC"/><rect x="44" y="68" width="16" height="24" rx="4" fill="#F8FAFC"/><rect x="66" y="68" width="16" height="24" rx="4" fill="#F8FAFC"/><rect x="88" y="68" width="16" height="24" rx="4" fill="#F8FAFC"/><rect x="110" y="68" width="16" height="24" rx="4" fill="#F8FAFC"/><rect x="132" y="68" width="16" height="24" rx="4" fill="#F8FAFC"/><rect x="154" y="68" width="16" height="24" rx="4" fill="#F8FAFC"/><rect x="176" y="68" width="16" height="24" rx="4" fill="#F8FAFC"/><rect x="198" y="68" width="16" height="24" rx="4" fill="#F8FAFC"/><path d="M28 112h184" /><path d="M34 112l-8-8M34 112l-8 8M206 112l8-8M206 112l8 8" /></svg>
