<svg xmlns="http://www.w3.org/2000/svg" viewBox="0 0 240 160" fill="none" stroke="#111827" stroke-width="3" stroke-linecap="round" stroke-linejoin="round"><rect x="32" y="44" width="20" height="20" rx="2" fill="#F8FAFC"/><rect x="56" y="44" width="20" height="20" rx="2" fill="#F8FAFC"/><rect x="80" y="44" width="20" height="20" rx="2" fill="#F8FAFC"/><rect x="32" y="68" width="20" height="20" rx="2" fill="#F8FAFC"/><rect x="56" y="68" width="20" height="20" rx="2" fill="#F8FAFC"/><rect x="80" y="68" width="20" height="20" rx="2" fill="#F8FAFC"/><rect x="32" y="92" width="20" height="20" rx="2" fill="#F8FAFC"/><rect x="56" y="92" width="20" height="20" rx="2" fill="#F8FAFC"/><rect x="80" y="92" width="20" height="20" rx="2" fill="#F8FAFC"/><line x1="104" y1="76" x2="132" y2="76" /><polyline points="125.11406378396845,80.07233132600297 132,76 125.11406378396845,71.92766867399703"/><rect x="140" y="48" width="60" height="56" rx="8" fill="#F8FAFC"/><path d="M152 66h34M152 84h28" /></svg>
