<svg xmlns="http://www.w3.org/2000/svg" viewBox="0 0 240 160" fill="none" stroke="#111827" stroke-width="3" stroke-linecap="round" stroke-linejoin="round"><rect x="36" y="28" width="72" height="104" rx="8" fill="#F8FAFC"/><rect x="46" y="38" width="13" height="13" rx="2" fill="#F8FAFC"/><rect x="64" y="38" width="13" height="13" rx="2" fill="#F8FAFC"/><rect x="82" y="38" width="13" height="13" rx="2" fill="#F8FAFC"/><rect x="46" y="56" width="13" height="13" rx="2" fill="#F8FAFC"/><rect x="64" y="56" width="13" height="13" rx="2" fill="#F8FAFC"/><rect x="82" y="56" width="13" height="13" rx="2" fill="#F8FAFC"/><rect x="46" y="74" width="13" height="13" rx="2" fill="#F8FAFC"/><rect x="64" y="74" width="13" height="13" rx="2" fill="#F8FAFC"/><rect x="82" y="74" width="13" height="13" rx="2" fill="#F8FAFC"/><rect x="46" y="92" width="13" height="13" rx="2" fill="#F8FAFC"/><rect x="64" y="92" width="13" height="13" rx="2" fill="#F8FAFC"/><rect x="82" y="92" width="13" height="13" rx="2" fill="#F8FAFC"/><line x1="112" y1="80" x2="135" y2="80" /><polyline points="128.11406378396845,84.07233132600297 135,80 128.11406378396845,75.92766867399703"/><rect x="138" y="52" width="66" height="56" rx="8" fill="#F8FAFC"/><path d="M150 65h42M150 80h42M150 95h42" /></svg>
