<svg viewBox="2.225 3.225 18.55 16.55" fill="none" stroke="currentColor" stroke-width="1.55" stroke-linecap="round" stroke-linejoin="round"  xmlns="http://www.w3.org/2000/svg" data-icon-id="dl.tensor.reshape.generated_outline.v1" data-source="generated_deep_learning_svg_icons"><rect x="3" y="4" width="2" height="2" rx=".35"/><rect x="7" y="4" width="2" height="2" rx=".35"/><rect x="11" y="4" width="2" height="2" rx=".35"/><rect x="3" y="8" width="2" height="2" rx=".35"/><rect x="7" y="8" width="2" height="2" rx=".35"/><rect x="11" y="8" width="2" height="2" rx=".35"/><rect x="3" y="12" width="2" height="2" rx=".35"/><rect x="7" y="12" width="2" height="2" rx=".35"/><rect x="11" y="12" width="2" height="2" rx=".35"/><path d="M14 7h6m0 0-2-2m2 2-2 2"/><path d="M14 13h6m0 0-2-2m2 2-2 2"/><path d="M14 19h6"/></svg>
